<svg width="375" height="326" viewBox="0 0 375 326" fill="none" xmlns="http://www.w3.org/2000/svg">
<path opacity="0.08" d="M300 164.5C300 226.08 250.08 276 188.5 276C126.92 276 77 226.08 77 164.5C77 102.92 126.92 53 188.5 53C250.08 53 300 102.92 300 164.5Z" fill="#2D2E40"/>
<path opacity="0.5" d="M313.5 163C313.5 232.312 257.312 288.5 188 288.5C118.688 288.5 62.5 232.312 62.5 163C62.5 93.6883 118.688 37.5 188 37.5C257.312 37.5 313.5 93.6883 313.5 163Z" stroke="#2D2E40"/>
<path opacity="0.25" d="M350.5 163C350.5 252.746 277.746 325.5 188 325.5C98.2537 325.5 25.5 252.746 25.5 163C25.5 73.2537 98.2537 0.5 188 0.5C277.746 0.5 350.5 73.2537 350.5 163Z" stroke="#2D2E40"/>
<g filter="url(#filter0_d_17_94)">
<path d="M303 75H75C68.3726 75 63 80.3726 63 87V236C63 242.627 68.3726 248 75 248H303C309.627 248 315 242.627 315 236V87C315 80.3726 309.627 75 303 75Z" fill="#535353"/>
<path d="M304 77H74C68.4772 77 64 81.4772 64 87V237C64 242.523 68.4772 247 74 247H304C309.523 247 314 242.523 314 237V87C314 81.4772 309.523 77 304 77Z" fill="#1D1D25"/>
<mask id="mask0_17_94" style="mask-type:alpha" maskUnits="userSpaceOnUse" x="71" y="83" width="237" height="158">
<path d="M305 83H74C72.3431 83 71 84.3431 71 86V237.94C71 239.597 72.3431 240.94 74 240.94H305C306.657 240.94 308 239.597 308 237.94V86C308 84.3431 306.657 83 305 83Z" fill="white"/>
</mask>
<g mask="url(#mask0_17_94)">
<path d="M305 83H74C72.3431 83 71 84.3431 71 86V237.94C71 239.597 72.3431 240.94 74 240.94H305C306.657 240.94 308 239.597 308 237.94V86C308 84.3431 306.657 83 305 83Z" fill="url(#paint0_linear_17_94)"/>
<path d="M304.848 111.352H73.8481C72.1913 111.352 70.8481 112.695 70.8481 114.352V238.061C70.8481 239.718 72.1913 241.061 73.8481 241.061H304.848C306.505 241.061 307.848 239.718 307.848 238.061V114.352C307.848 112.695 306.505 111.352 304.848 111.352Z" fill="#F9F6F6"/>
<path d="M151.429 100.615H107.478C105.821 100.615 104.478 101.958 104.478 103.615V218.25C104.478 219.907 105.821 221.25 107.478 221.25H151.429C153.086 221.25 154.429 219.907 154.429 218.25V103.615C154.429 101.958 153.086 100.615 151.429 100.615Z" fill="white"/>
<path d="M271.523 100.615H165.931C164.274 100.615 162.931 101.958 162.931 103.615V218.25C162.931 219.907 164.274 221.25 165.931 221.25H271.523C273.18 221.25 274.523 219.907 274.523 218.25V103.615C274.523 101.958 273.18 100.615 271.523 100.615Z" fill="white"/>
<path d="M266.74 107.02H170.713C169.056 107.02 167.713 108.363 167.713 110.02V132.311C167.713 133.968 169.056 135.311 170.713 135.311H266.74C268.397 135.311 269.74 133.968 269.74 132.311V110.02C269.74 108.363 268.397 107.02 266.74 107.02Z" fill="#E7E7E7"/>
<path d="M195.002 141.183H170.713C169.056 141.183 167.713 142.526 167.713 144.183V166.474C167.713 168.131 169.056 169.474 170.713 169.474H195.002C196.659 169.474 198.002 168.131 198.002 166.474V144.183C198.002 142.526 196.659 141.183 195.002 141.183Z" fill="#E7E7E7"/>
<path d="M266.74 141.183H208.442C206.786 141.183 205.442 142.526 205.442 144.183V166.474C205.442 168.131 206.786 169.474 208.442 169.474H266.74C268.397 169.474 269.74 168.131 269.74 166.474V144.183C269.74 142.526 268.397 141.183 266.74 141.183Z" fill="#E7E7E7"/>
</g>
<g opacity="0.098">
<path opacity="0.098" d="M193.62 68H188.5C188.224 68 188 68.2239 188 68.5C188 68.7761 188.224 69 188.5 69H193.62C193.896 69 194.12 68.7761 194.12 68.5C194.12 68.2239 193.896 68 193.62 68Z" fill="#4A5166"/>
<path opacity="0.098" d="M196.5 68H196.06C195.784 68 195.56 68.2239 195.56 68.5C195.56 68.7761 195.784 69 196.06 69H196.5C196.776 69 197 68.7761 197 68.5C197 68.2239 196.776 68 196.5 68Z" fill="#4A5166"/>
</g>
<mask id="mask1_17_94" style="mask-type:alpha" maskUnits="userSpaceOnUse" x="24" y="246" width="328" height="8">
<path d="M27 246H348.953C349.749 246 350.512 246.316 351.074 246.879C351.637 247.441 351.953 248.204 351.953 249V253.602H24V249C24 248.204 24.3161 247.441 24.8787 246.879C25.4413 246.316 26.2044 246 27 246V246Z" fill="white"/>
</mask>
<g mask="url(#mask1_17_94)">
<path d="M27 246H348.953C349.749 246 350.512 246.316 351.074 246.879C351.637 247.441 351.953 248.204 351.953 249V253.602H24V249C24 248.204 24.3161 247.441 24.8787 246.879C25.4413 246.316 26.2044 246 27 246V246Z" fill="#52526F"/>
<path d="M204.76 227.374H171.193C165.67 227.374 161.193 231.851 161.193 237.374V240.561C161.193 246.084 165.67 250.561 171.193 250.561H204.76C210.283 250.561 214.76 246.084 214.76 240.561V237.374C214.76 231.851 210.283 227.374 204.76 227.374Z" fill="#2F2F47"/>
</g>
<path d="M24 254H352C352 254.796 351.684 255.559 351.121 256.121C350.559 256.684 349.796 257 349 257H27C26.2044 257 25.4413 256.684 24.8787 256.121C24.3161 255.559 24 254.796 24 254V254Z" fill="#393A56"/>
</g>
<defs>
<filter id="filter0_d_17_94" x="-16" y="48" width="408" height="269" filterUnits="userSpaceOnUse" color-interpolation-filters="sRGB">
<feFlood flood-opacity="0" result="BackgroundImageFix"/>
<feColorMatrix in="SourceAlpha" type="matrix" values="0 0 0 0 0 0 0 0 0 0 0 0 0 0 0 0 0 0 127 0" result="hardAlpha"/>
<feOffset dy="20"/>
<feGaussianBlur stdDeviation="20"/>
<feColorMatrix type="matrix" values="0 0 0 0 0.421822 0 0 0 0 0.554338 0 0 0 0 0.89371 0 0 0 0.243444 0"/>
<feBlend mode="normal" in2="BackgroundImageFix" result="effect1_dropShadow_17_94"/>
<feBlend mode="normal" in="SourceGraphic" in2="effect1_dropShadow_17_94" result="shape"/>
</filter>
<linearGradient id="paint0_linear_17_94" x1="71" y1="126.899" x2="267.485" y2="257.837" gradientUnits="userSpaceOnUse">
<stop stop-color="#FF8F71"/>
<stop offset="1" stop-color="#FF3E55"/>
</linearGradient>
</defs>
</svg>
